<mxfile host="app.diagrams.net" modified="2024-04-01T07:39:03.007Z" agent="Mozilla/5.0 (Windows NT 10.0; Win64; x64) AppleWebKit/537.36 (KHTML, like Gecko) Chrome/122.0.0.0 Safari/537.36" version="24.0.1" etag="TaaRX8tgJ7w4s2W00hMi" type="github">
  <diagram name="Страница — 1" id="OShYo-4-ArDfqLxgVxSA">
    <mxGraphModel>
      <root>
        <mxCell id="0" />
        <mxCell id="1" parent="0" />
      </root>
    </mxGraphModel>
  </diagram>
</mxfile>
